<svg width="33" height="52" viewBox="0 0 33 52" fill="none" xmlns="http://www.w3.org/2000/svg">
<path fill-rule="evenodd" clip-rule="evenodd" d="M26.6137 25.0198L29.8649 31.4381L27.4032 41.9408L21.551 37.1329L22.5728 29.4309L26.6137 25.0198Z" fill="white"/>
<path fill-rule="evenodd" clip-rule="evenodd" d="M17.9514 22.8725C17.2779 22.8725 16.7206 22.3124 16.7206 21.6355V11.9731C16.7206 11.2962 17.2779 10.7361 17.9514 10.7361C18.6249 10.7361 19.1822 11.2962 19.1822 11.9731V21.6355C19.1822 22.3124 18.6249 22.8725 17.9514 22.8725Z" fill="#15003E"/>
<path fill-rule="evenodd" clip-rule="evenodd" d="M19.9255 22.8724H16.1401C15.4666 22.8491 14.9325 22.2889 14.9325 21.6121C14.9557 20.9586 15.4666 20.4218 16.1401 20.3984H19.9022C20.5757 20.3984 21.1098 20.9586 21.1098 21.6354C21.1098 22.3356 20.5757 22.8724 19.9255 22.8724Z" fill="#15003E"/>
<path fill-rule="evenodd" clip-rule="evenodd" d="M26.6136 25.0196L30.6311 21.2153C27.5657 18.1345 23.3159 16.2207 18.648 16.2207C9.28914 16.2207 1.69519 23.8527 1.69519 33.2584C1.69519 42.6641 9.28914 50.2961 18.648 50.2961C22.1315 50.2961 25.2202 51.5798 27.914 49.7593L31.2814 50.2261L31.1885 44.7413L21.5741 37.0861L23.641 27.3069L26.6136 25.0196Z" fill="white"/>
<path fill-rule="evenodd" clip-rule="evenodd" d="M18.6249 52C8.36031 52 0 43.5978 0 33.2819C0 22.9425 8.36031 14.5637 18.6249 14.5637C23.5947 14.5637 28.2857 16.5009 31.7924 20.0485L33 21.2621L27.7516 26.2334L25.4757 23.8061L28.1696 21.2621C25.4757 19.0915 22.1316 17.9246 18.6249 17.9246C10.1949 17.9246 3.3209 24.8097 3.3209 33.3052C3.3209 41.7774 10.1717 48.6858 18.6249 48.6858" fill="#15003E"/>
<path fill-rule="evenodd" clip-rule="evenodd" d="M27.9838 42.3843L25.5918 40.0504C27.3568 38.2299 28.3322 35.826 28.3322 33.282C28.3322 30.6213 27.2871 28.1474 25.3828 26.3036L24.1288 25.0899L25.4757 23.8296L26.6137 25.0432L27.7051 23.9229C30.2597 26.3969 31.6531 29.7344 31.6531 33.3054C31.6298 36.6896 30.3294 39.9337 27.9838 42.3843Z" fill="#0FCE7C"/>
<path fill-rule="evenodd" clip-rule="evenodd" d="M14.7931 33.2819C14.7931 31.158 16.5116 29.4309 18.6249 29.4309C20.7382 29.4309 22.4567 31.158 22.4567 33.2819C22.4567 35.4058 20.7382 37.1329 18.6249 37.1329C16.5116 37.1329 14.7931 35.4058 14.7931 33.2819Z" fill="#EFF4EE"/>
<path fill-rule="evenodd" clip-rule="evenodd" d="M18.625 31.0879C17.4406 31.0879 16.4652 32.0681 16.4652 33.2584C16.4652 34.4487 17.4406 35.429 18.625 35.429C19.8093 35.429 20.7847 34.4487 20.7847 33.2584C20.7847 32.0681 19.8093 31.0879 18.625 31.0879ZM18.625 38.7898C15.606 38.7898 13.1211 36.3159 13.1211 33.2584C13.1211 30.201 15.5827 27.727 18.625 27.727C21.6672 27.727 24.1288 30.201 24.1288 33.2584C24.1288 36.3159 21.644 38.7898 18.625 38.7898ZM30.6081 21.2153L20.924 30.201L30.6081 21.2153Z" fill="#15003E"/>
<path fill-rule="evenodd" clip-rule="evenodd" d="M22.062 31.438L19.8093 28.9874L29.4934 20.0017L31.746 22.4523L22.062 31.438Z" fill="#15003E"/>
<path fill-rule="evenodd" clip-rule="evenodd" d="M20.4363 36.666L27.4032 41.9407L31.1653 44.7881V51.9999L23.6178 51.6265" fill="white"/>
<path fill-rule="evenodd" clip-rule="evenodd" d="M32.8142 52H18.323V48.6624H29.4701V45.6283L19.4145 38.0197L21.4117 35.3357L32.791 43.9479L32.8142 52Z" fill="#15003E"/>
<mask id="mask0" mask-type="alpha" maskUnits="userSpaceOnUse" x="0" y="0" width="3" height="3">
<path fill-rule="evenodd" clip-rule="evenodd" d="M0.0933838 0H2.76404V2.68402H0.0933838V0Z" fill="white"/>
</mask>
<g mask="url(#mask0)">
</g>
</svg>
