<svg viewBox="0 0 520 383.99482" xmlns="http://www.w3.org/2000/svg" xmlns:xlink="http://www.w3.org/1999/xlink"><linearGradient id="a" gradientUnits="userSpaceOnUse" x1="262.60191" x2="255.35465" y1="45.84458" y2="456.22039"><stop offset=".08015" stop-color="#4b39ff" stop-opacity="0"/><stop offset="1" stop-color="#4b39ff"/></linearGradient><clipPath id="b"><path d="m95.494 358.711.015-5.26 10.254 5.92-.015 5.26z"/></clipPath><clipPath id="c"><path d="m129.645 368.951-.015-5.261 4.578-2.643.014 5.26z"/></clipPath><clipPath id="d"><path d="m138.157 363.774-.015-5.252 4.572-2.64.015 5.253z"/></clipPath><clipPath id="e"><path d="m146.338 359.212-.015-5.253 4.572-2.64.015 5.253z"/></clipPath><clipPath id="f"><path d="m95.494 338.183.015-5.253 10.254 5.92-.015 5.253z"/></clipPath><clipPath id="g"><path d="m129.645 348.43-.015-5.26 4.578-2.643.014 5.26z"/></clipPath><clipPath id="h"><path d="m138.157 343.254-.015-5.261 4.572-2.639.015 5.26z"/></clipPath><clipPath id="i"><path d="m146.338 338.691-.015-5.261 4.572-2.639.015 5.26z"/></clipPath><clipPath id="j"><path d="m378.409 356.569.015-5.26 10.254 5.92-.015 5.26z"/></clipPath><clipPath id="k"><path d="m412.558 366.807-.015-5.261 4.572-2.639.015 5.26z"/></clipPath><clipPath id="l"><path d="m421.064 361.633-.014-5.26 4.577-2.643.015 5.26z"/></clipPath><clipPath id="m"><path d="m429.246 357.071-.015-5.261 4.578-2.643.015 5.26z"/></clipPath><clipPath id="n"><path d="m378.409 336.041.015-5.253 10.254 5.92-.015 5.253z"/></clipPath><clipPath id="o"><path d="m412.558 346.278-.015-5.252 4.572-2.64.015 5.253z"/></clipPath><clipPath id="p"><path d="m421.064 341.105-.014-5.253 4.577-2.643.015 5.253z"/></clipPath><clipPath id="q"><path d="m429.246 336.542-.015-5.253 4.578-2.643.015 5.253z"/></clipPath><clipPath id="r"><path d="m378.409 174.59.015-5.253 10.254 5.92-.015 5.253z"/></clipPath><clipPath id="s"><path d="m412.558 184.827-.015-5.252 4.572-2.64.015 5.253z"/></clipPath><clipPath id="t"><path d="m421.064 179.654-.014-5.253 4.577-2.643.015 5.253z"/></clipPath><clipPath id="u"><path d="m429.246 175.091-.015-5.253 4.578-2.643.015 5.253z"/></clipPath><clipPath id="v"><path d="m378.409 154.069.015-5.26 10.254 5.92-.015 5.26z"/></clipPath><clipPath id="w"><path d="m412.558 164.307-.015-5.261 4.572-2.639.015 5.26z"/></clipPath><clipPath id="x"><path d="m421.064 159.134-.014-5.253 4.577-2.643.015 5.253z"/></clipPath><clipPath id="y"><path d="m429.246 154.571-.015-5.253 4.578-2.643.015 5.253z"/></clipPath><clipPath id="z"><path d="m95.494 173.231.015-5.253 10.254 5.92-.015 5.253z"/></clipPath><clipPath id="A"><path d="m129.645 183.47-.015-5.253 4.578-2.643.014 5.253z"/></clipPath><clipPath id="B"><path d="m138.157 178.293-.015-5.252 4.572-2.64.015 5.253z"/></clipPath><clipPath id="C"><path d="m146.338 173.731-.015-5.253 4.572-2.64.015 5.253z"/></clipPath><clipPath id="D"><path d="m95.494 152.71.015-5.26 10.254 5.92-.015 5.26z"/></clipPath><clipPath id="E"><path d="m129.645 162.949-.015-5.26 4.578-2.643.014 5.26z"/></clipPath><clipPath id="F"><path d="m138.157 157.773-.015-5.261 4.572-2.639.015 5.26z"/></clipPath><clipPath id="G"><path d="m146.338 153.211-.015-5.253 4.572-2.64.015 5.253z"/></clipPath><path d="m393.7235 159.40214c-73.87276-47.587-193.25661-47.58635-266.64917.00135s-73.00339 124.74315.86937 172.33015c73.87256 47.58686 193.25641 47.58621 266.649-.00149s73.00339-124.74315-.86916-172.33" fill="#e4ecfa"/><path d="m393.72341 159.40215-.021-.01343" fill="none" stroke="#396aeb" stroke-linecap="round" stroke-linejoin="round" stroke-width="1.578591"/><path d="m386.968 155.25564c-74.22509-43.3978-188.69873-42.015-259.89355 4.14785-73.39258 47.58771-73.00342 124.74317.86914 172.33014s193.25641 47.58621 266.64896-.00149c72.27881-46.86536 72.99853-122.40769 2.44384-170.14282" style="fill:none;stroke:#396aeb;stroke-linecap:round;stroke-linejoin:round;stroke-width:1.578591;stroke-dasharray:.052686 7.902895"/><path d="m393.73708 159.41094-.01367-.00879" fill="none" stroke="#396aeb" stroke-linecap="round" stroke-linejoin="round" stroke-width="1.578591"/><path d="m121.8923 333.80376 284.53117-176.24397" style="fill:none;stroke:#2bbdf7;stroke-linecap:round;stroke-linejoin:round;stroke-width:5.261971;stroke-dasharray:.05262 15.785913"/><path d="m121.1921 160.6534 285.93157 170.05674" style="fill:none;stroke:#2bbdf7;stroke-linecap:round;stroke-linejoin:round;stroke-width:5.261971;stroke-dasharray:.05262 15.785913"/><path d="m318.70707 225.21005c-32.17145-18.57419-84.16289-18.57394-116.12522.00053s-31.79284 48.68985.37861 67.26405 84.16281 18.57389 116.12513-.00059 31.79284-48.68985-.37852-67.264" fill="#0b1547"/><path d="m178.72053 232.33066h164.22596v26.51165h-164.22596z" fill="#0b1547"/><path d="m318.70709 198.70153c-32.17145-18.57419-84.1629-18.57394-116.12522.00053s-31.79284 48.68985.37861 67.26405 84.16281 18.57389 116.12513-.00058 31.79284-48.68985-.37852-67.264" fill="#fff"/><path d="m250.004 198.229 10.83 23.965 16.084-9.282h.029v-18.565z" fill="#2bbdf7" fill-rule="evenodd"/><path d="m297.73044 180.42293-10.04151-3.76556-10.74207-.87571v18.5651 39.2903l16.11314 9.28255 12.84375-26.15461-8.14413-25.16214z" fill="#2891f9" fill-rule="evenodd"/><path d="m296.796 175.782-3.736 9.282v57.71l16.113-9.283v-57.709z" fill="#2bbdf7" fill-rule="evenodd"/><path d="m293.06 166.499-16.113 9.283 16.113 9.282 16.113-9.282z" fill="#2b6def" fill-rule="evenodd"/><path d="m260.834 203.629-16.113-18.039-32.227-9.808v57.709l16.114 9.283 4.612-31.935 11.501 2.073 16.113 9.282z" fill="#2891f9" fill-rule="evenodd"/><path d="m228.608 166.499-16.114 9.283 48.34 27.847 7.297-4.203 8.816-5.079z" fill="#2b6def" fill-rule="evenodd"/><path d="m228.608 203.629v39.145l16.113-9.283v-20.579z" fill="#2bbdf7" fill-rule="evenodd"/><path d="m295.87675 77.13876c-.06757-12.17316 38.91691-41.882 22.83039-51.16962-32.17151-18.57421-84.16289-18.57395-116.12525.00051-15.981 9.28713-23.92925 21.45946-23.86091 33.63175l48.96191 12.72652-48.96229 160.00586h.00051c.069 12.17206 8.15413 24.344 24.23937 33.63081 32.17137 18.57414 84.16275 18.57389 116.12512-.00061 15.98169-9.28755 23.92989-21.46048 23.8609-33.63332z" fill="url(#a)"/><path d="m227.68289 65.3 33.15042-14.20732 33.15042 14.20732-33.15042 18.9431z" fill="#091448"/><path d="m227.68289 58.19566 33.15042-52.09351 33.15042 52.09351-33.15042 18.9431z" fill="#4b39ff"/><path d="m227.68289 65.29932 33.15042 18.9431 33.15042-18.9431-33.15042 44.98985z" fill="#4b39ff"/><path d="m260.83331 6.10215 33.15042 52.09351-33.15042 18.9431z" fill="#c998ff"/><path d="m260.83331 84.24242 33.15042-18.9431-33.15042 44.98985z" fill="#c998ff"/><path d="m156.97156 355.06214v-14.721l-12.19208-.00006-19.88448-11.48033a10.68294 10.68294 0 0 0 -9.69765.00006l-19.75436 11.48-12.09405-.00007v14.7216h.00013a3.44158 3.44158 0 0 0 2.02359 2.80917l30.05156 17.35028a10.68877 10.68877 0 0 0 9.69765-.00013l29.85629-17.3505a3.39475 3.39475 0 0 0 1.9934-2.80902z" fill="#396aeb"/><path d="m154.9465 337.53224-30.0515-17.35024a10.68311 10.68311 0 0 0 -9.69773 0l-29.85619 17.35059c-2.66688 1.54982-2.656 4.06557.03162 5.61729l30.05147 17.35022a10.68883 10.68883 0 0 0 9.69774 0l29.85621-17.35053c2.67018-1.55174 2.65612-4.06552-.03162-5.61729" fill="#2891f9"/><g clip-path="url(#b)"><path d="m105.07955 358.97628-8.88109-5.1275c-.3831-.22119-.69033-.03848-.69156.39437l-.01042 3.67557a1.50631 1.50631 0 0 0 .68707 1.19031l8.88109 5.1275c.37687.21758.68408.04222.68533-.398l.01042-3.67557a1.51566 1.51566 0 0 0 -.68084-1.18673" fill="#4cecbb"/></g><g clip-path="url(#c)"><path d="m131.91547 362.37054a5.028 5.028 0 0 0 -2.27836 3.9535c.0041 1.44529 1.02895 2.0367 2.29327 1.30674a5.0397 5.0397 0 0 0 2.28462-3.94978c-.00412-1.45261-1.03555-2.04022-2.29953-1.31046" fill="#2bbdf7"/></g><g clip-path="url(#d)"><path d="m140.42794 357.202a5.01465 5.01465 0 0 0 -2.278 3.946c.00412 1.4526 1.02895 2.03667 2.29293 1.30692a5.01475 5.01475 0 0 0 2.27838-3.94617c-.00412-1.45263-1.02895-2.0367-2.29328-1.30674" fill="#2bbdf7"/></g><g clip-path="url(#e)"><path d="m148.609 352.6389a5.01473 5.01473 0 0 0 -2.27838 3.94619c.00411 1.45261 1.029 2.03668 2.29327 1.30672a5.01474 5.01474 0 0 0 2.27838-3.94616c-.00412-1.45263-1.029-2.0367-2.29327-1.30675" fill="#2bbdf7"/></g><path d="m156.97157 334.53941v-14.721l-12.19208-.00006-19.88449-11.48035a10.68294 10.68294 0 0 0 -9.69765.00006l-19.75435 11.47994-12.094-.00007v14.7216h.00013a3.44157 3.44157 0 0 0 2.0236 2.80917l30.05149 17.3503a10.68877 10.68877 0 0 0 9.69765-.00013l29.85629-17.3505a3.39473 3.39473 0 0 0 1.99341-2.80896z" fill="#396aeb"/><path d="m154.94651 317.00951-30.05151-17.35023a10.68313 10.68313 0 0 0 -9.69774 0l-29.85617 17.35058c-2.66688 1.54982-2.656 4.06557.03162 5.61729l30.05148 17.35022a10.68881 10.68881 0 0 0 9.69773 0l29.85621-17.35053c2.67018-1.55174 2.65613-4.06552-.03162-5.61729" fill="#2891f9"/><g clip-path="url(#f)"><path d="m105.07954 338.45546-8.88109-5.1275c-.3831-.22119-.69031-.04582-.69156.39435l-.01042 3.67557a1.50441 1.50441 0 0 0 .68709 1.183l8.88109 5.1275c.37687.21758.68408.04222.68531-.39064l.01042-3.67557a1.50433 1.50433 0 0 0 -.68084-1.1867" fill="#4cecbb"/></g><g clip-path="url(#g)"><path d="m131.91547 341.85055a5.026 5.026 0 0 0 -2.27838 3.94616c.00412 1.45263 1.029 2.044 2.29329 1.31406a5.04157 5.04157 0 0 0 2.2846-3.95711c-.0041-1.44529-1.03553-2.03287-2.29951-1.30311" fill="#2bbdf7"/></g><g clip-path="url(#h)"><path d="m140.42793 336.67383a5.026 5.026 0 0 0 -2.278 3.946c.00412 1.4526 1.029 2.044 2.29295 1.31426a5.028 5.028 0 0 0 2.27836-3.95351c-.0041-1.44529-1.029-2.0367-2.29328-1.30674" fill="#2bbdf7"/></g><g clip-path="url(#i)"><path d="m148.609 332.11074a5.02792 5.02792 0 0 0 -2.27836 3.95351c.00409 1.44529 1.029 2.0367 2.29327 1.30674a5.026 5.026 0 0 0 2.27838-3.94619c-.00412-1.45261-1.029-2.044-2.29329-1.31406" fill="#2bbdf7"/></g><path d="m439.8827 352.91738v-14.721l-12.19207-.00006-19.8845-11.48032a10.68294 10.68294 0 0 0 -9.69765.00006l-19.75435 11.48-12.09406-.00007v14.7216h.00013a3.44157 3.44157 0 0 0 2.0236 2.80917l30.05155 17.35024a10.68877 10.68877 0 0 0 9.69765-.00013l29.85629-17.3505a3.39473 3.39473 0 0 0 1.99341-2.80899z" fill="#396aeb"/><path d="m437.85764 335.38748-30.05147-17.35023a10.68307 10.68307 0 0 0 -9.69774.00005l-29.85621 17.35053c-2.66688 1.54982-2.656 4.06557.03162 5.61729l30.05148 17.35022a10.68883 10.68883 0 0 0 9.69774 0l29.8562-17.35053c2.67019-1.55174 2.65613-4.06552-.03162-5.61729" fill="#2891f9"/><g clip-path="url(#j)"><path d="m387.99459 356.83428-8.88732-5.1311c-.37687-.21758-.68408-.04222-.68533.398l-.01042 3.67554a1.51566 1.51566 0 0 0 .68084 1.18673l8.88732 5.1311c.37687.21758.6841.03488.68533-.398l.01042-3.67554a1.50436 1.50436 0 0 0 -.68084-1.18673" fill="#4cecbb"/></g><g clip-path="url(#k)"><path d="m414.82916 360.22664a5.026 5.026 0 0 0 -2.27838 3.94616c.00412 1.45263 1.029 2.044 2.29329 1.31407a5.02783 5.02783 0 0 0 2.278-3.95331c-.0041-1.44527-1.029-2.03668-2.29293-1.30692" fill="#2bbdf7"/></g><g clip-path="url(#l)"><path d="m423.34163 355.04992a5.03971 5.03971 0 0 0 -2.28462 3.94979c.00412 1.45263 1.03555 2.04021 2.29953 1.31046a5.02792 5.02792 0 0 0 2.27836-3.95351c-.0041-1.44529-1.029-2.0367-2.29327-1.30674" fill="#2bbdf7"/></g><g clip-path="url(#m)"><path d="m431.5162 350.49073a5.02783 5.02783 0 0 0 -2.278 3.95331c.0041 1.44529 1.029 2.0367 2.29293 1.30694a5.03983 5.03983 0 0 0 2.285-3.95c-.00412-1.4526-1.03555-2.04021-2.29987-1.31026" fill="#2bbdf7"/></g><path d="m439.88271 332.39465v-14.721l-12.19207-.00006-19.8845-11.48031a10.68292 10.68292 0 0 0 -9.69764.00006l-19.75436 11.48-12.09406-.00007v14.7216h.00013a3.44159 3.44159 0 0 0 2.0236 2.80917l30.05156 17.35028a10.68874 10.68874 0 0 0 9.69764-.00013l29.85629-17.3505a3.39473 3.39473 0 0 0 1.99341-2.80904z" fill="#396aeb"/><path d="m437.85766 314.86475-30.05148-17.35023a10.68307 10.68307 0 0 0 -9.69774 0l-29.8562 17.35053c-2.66688 1.54982-2.656 4.06557.03161 5.61729l30.05148 17.35022a10.68883 10.68883 0 0 0 9.69774 0l29.8562-17.35053c2.67019-1.55174 2.65613-4.06552-.03161-5.61729" fill="#2891f9"/><g clip-path="url(#n)"><path d="m387.99458 336.31346-8.88732-5.1311c-.37687-.21759-.68408-.04222-.68531.39061l-.01044 3.68291a1.50239 1.50239 0 0 0 .68086 1.17939l8.88732 5.1311c.37687.21758.68408.04222.68531-.39064l.01044-3.6829a1.50238 1.50238 0 0 0 -.68086-1.17937" fill="#4cecbb"/></g><g clip-path="url(#o)"><path d="m414.82917 339.70579a5.01475 5.01475 0 0 0 -2.27838 3.94619c.00412 1.45263 1.029 2.03667 2.29327 1.30671a5.01459 5.01459 0 0 0 2.278-3.946c-.00412-1.45263-1.029-2.0367-2.29293-1.30694" fill="#2bbdf7"/></g><g clip-path="url(#p)"><path d="m423.34164 334.5291a5.02836 5.02836 0 0 0 -2.28462 3.94979c.00412 1.4526 1.03553 2.03287 2.29951 1.30312a5.01475 5.01475 0 0 0 2.27838-3.94617c-.00412-1.45263-1.029-2.0367-2.29327-1.30674" fill="#2bbdf7"/></g><g clip-path="url(#q)"><path d="m431.51621 329.96991a5.03709 5.03709 0 0 0 -2.278 3.946c.00412 1.45263 1.03519 2.0331 2.29293 1.30694a5.02848 5.02848 0 0 0 2.285-3.95c-.0041-1.44527-1.03553-2.03287-2.29985-1.30292" fill="#2bbdf7"/></g><path d="m439.8827 170.94289v-14.721l-12.19207-.00007-19.8845-11.4803a10.68294 10.68294 0 0 0 -9.69765.00006l-19.75435 11.48-12.09406-.00006v14.7216h.00013a3.44155 3.44155 0 0 0 2.0236 2.80916l30.05155 17.35028a10.68873 10.68873 0 0 0 9.69765-.00013l29.85629-17.3505a3.39473 3.39473 0 0 0 1.99341-2.80904z" fill="#396aeb"/><path d="m437.85764 153.413-30.05147-17.35022a10.6831 10.6831 0 0 0 -9.69774 0l-29.85621 17.35053c-2.66688 1.54982-2.656 4.06558.03162 5.61729l30.05148 17.35023a10.6888 10.6888 0 0 0 9.69774-.00005l29.8562-17.35053c2.67019-1.55174 2.65613-4.06552-.03162-5.61729" fill="#2891f9"/><g clip-path="url(#r)"><path d="m387.99458 174.86247-8.88732-5.1311c-.37687-.21758-.68408-.04224-.68531.39061l-.01044 3.68291a1.50239 1.50239 0 0 0 .68086 1.17939l8.88732 5.1311c.37687.21759.68408.04222.68531-.39064l.01044-3.6829a1.50235 1.50235 0 0 0 -.68086-1.17937" fill="#4cecbb"/></g><g clip-path="url(#s)"><path d="m414.82917 178.2548a5.01475 5.01475 0 0 0 -2.27838 3.94619c.00412 1.4526 1.029 2.03667 2.29327 1.30672a5.01465 5.01465 0 0 0 2.278-3.946c-.00412-1.45263-1.029-2.0367-2.29293-1.30694" fill="#2bbdf7"/></g><g clip-path="url(#t)"><path d="m423.34164 173.07811a5.02836 5.02836 0 0 0 -2.28462 3.94977c.00412 1.45263 1.03553 2.0329 2.29951 1.30314a5.01475 5.01475 0 0 0 2.27838-3.94619c-.00412-1.4526-1.029-2.03667-2.29327-1.30672" fill="#2bbdf7"/></g><g clip-path="url(#u)"><path d="m431.51621 168.51892a5.01458 5.01458 0 0 0 -2.278 3.946c.00412 1.45263 1.02895 2.03668 2.29293 1.30692a5.02841 5.02841 0 0 0 2.285-3.95c-.00412-1.45263-1.03553-2.03288-2.29985-1.30292" fill="#2bbdf7"/></g><path d="m439.88271 150.42016v-14.721l-12.19207-.00007-19.8845-11.4803a10.68292 10.68292 0 0 0 -9.69764.00006l-19.75436 11.48-12.09406-.00006v14.7216h.00013a3.44157 3.44157 0 0 0 2.0236 2.80916l30.05156 17.35028a10.68871 10.68871 0 0 0 9.69764-.00013l29.85629-17.3505a3.39473 3.39473 0 0 0 1.99341-2.80904z" fill="#396aeb"/><path d="m437.85766 132.89025-30.05148-17.35025a10.6831 10.6831 0 0 0 -9.69774 0l-29.8562 17.35053c-2.66688 1.54982-2.656 4.06558.03161 5.61729l30.05148 17.35023a10.6888 10.6888 0 0 0 9.69774-.00005l29.8562-17.35052c2.67019-1.55175 2.65613-4.06553-.03161-5.6173" fill="#2891f9"/><g clip-path="url(#v)"><path d="m387.99459 154.33428-8.88732-5.1311c-.37687-.21758-.6841-.03488-.68533.398l-.01042 3.67557a1.50435 1.50435 0 0 0 .68084 1.1867l8.88732 5.1311c.37687.21758.68408.04222.68533-.39795l.01042-3.67557a1.51568 1.51568 0 0 0 -.68084-1.18673" fill="#4cecbb"/></g><g clip-path="url(#w)"><path d="m414.82916 157.72664a5.028 5.028 0 0 0 -2.27836 3.9535c.0041 1.44529 1.029 2.0367 2.29327 1.30675a5.026 5.026 0 0 0 2.278-3.946c-.00412-1.45261-1.029-2.044-2.293-1.31426" fill="#2bbdf7"/></g><g clip-path="url(#x)"><path d="m423.34164 152.55812a5.02832 5.02832 0 0 0 -2.28462 3.94977c.00412 1.45263 1.03553 2.0329 2.29951 1.30314a5.01475 5.01475 0 0 0 2.27838-3.94619c-.00412-1.45263-1.029-2.03667-2.29327-1.30672" fill="#2bbdf7"/></g><g clip-path="url(#y)"><path d="m431.51621 147.9989a5.0257 5.0257 0 0 0 -2.278 3.946c.00412 1.45261 1.03519 2.03308 2.29293 1.30692a5.02847 5.02847 0 0 0 2.285-3.95c-.00412-1.45263-1.03553-2.0329-2.29985-1.303" fill="#2bbdf7"/></g><path d="m156.97156 169.58281v-14.721l-12.19208-.00007-19.88448-11.48032a10.68294 10.68294 0 0 0 -9.69765.00006l-19.75436 11.48-12.09405-.00007v14.72159h.00013a3.44158 3.44158 0 0 0 2.02359 2.80917l30.05156 17.35027a10.68873 10.68873 0 0 0 9.69765-.00013l29.85629-17.3505a3.39472 3.39472 0 0 0 1.9934-2.809z" fill="#396aeb"/><path d="m154.9465 152.05291-30.0515-17.35023a10.68308 10.68308 0 0 0 -9.69773 0l-29.85619 17.35057c-2.66688 1.54982-2.656 4.06558.03162 5.61729l30.05147 17.35023a10.68883 10.68883 0 0 0 9.69774 0l29.85621-17.35053c2.67018-1.55175 2.65612-4.06552-.03162-5.61729" fill="#2891f9"/><g clip-path="url(#z)"><path d="m105.07954 173.50346-8.88109-5.1275c-.3831-.22118-.69031-.04582-.69154.387l-.01044 3.68291a1.50439 1.50439 0 0 0 .68709 1.183l8.88109 5.1275c.37687.21759.68408.04222.68531-.39063l.01044-3.68291a1.5024 1.5024 0 0 0 -.68086-1.17937" fill="#4cecbb"/></g><g clip-path="url(#A)"><path d="m131.91548 176.89772a5.01472 5.01472 0 0 0 -2.27838 3.94617c.00412 1.45262 1.029 2.0367 2.29327 1.30674a5.02836 5.02836 0 0 0 2.28462-3.94979c-.00412-1.45263-1.03553-2.03288-2.29951-1.30312" fill="#2bbdf7"/></g><g clip-path="url(#B)"><path d="m140.42794 171.721a5.01465 5.01465 0 0 0 -2.278 3.946c.00412 1.45261 1.02895 2.03668 2.29293 1.30692a5.01474 5.01474 0 0 0 2.27838-3.94616c-.00412-1.45263-1.02895-2.0367-2.29328-1.30675" fill="#2bbdf7"/></g><g clip-path="url(#C)"><path d="m148.609 167.15792a5.01469 5.01469 0 0 0 -2.27838 3.94616c.00411 1.45263 1.029 2.0367 2.29327 1.30674a5.01475 5.01475 0 0 0 2.27838-3.94619c-.00412-1.4526-1.029-2.03667-2.29327-1.30671" fill="#2bbdf7"/></g><path d="m156.97157 149.06008v-14.721l-12.19208-.00007-19.88449-11.48032a10.68294 10.68294 0 0 0 -9.69765.00006l-19.75436 11.48-12.094-.00007v14.7216h.00013a3.44157 3.44157 0 0 0 2.0236 2.80917l30.05155 17.35027a10.68873 10.68873 0 0 0 9.69765-.00013l29.85629-17.3505a3.3947 3.3947 0 0 0 1.99336-2.80901z" fill="#396aeb"/><path d="m154.94651 131.53018-30.05151-17.35018a10.6831 10.6831 0 0 0 -9.69774 0l-29.85617 17.35052c-2.66688 1.54982-2.656 4.06558.03162 5.61729l30.05148 17.35019a10.68881 10.68881 0 0 0 9.69773 0l29.85621-17.35053c2.67018-1.55175 2.65613-4.06552-.03162-5.61729" fill="#2891f9"/><g clip-path="url(#D)"><path d="m105.07955 152.9753-8.88109-5.1275c-.3831-.22119-.69031-.04584-.69156.39435l-.01042 3.67557a1.50626 1.50626 0 0 0 .68707 1.1903l8.88109 5.1275c.37687.21759.68408.04225.68533-.398l.01042-3.67557a1.5043 1.5043 0 0 0 -.68084-1.1867" fill="#4cecbb"/></g><g clip-path="url(#E)"><path d="m131.91547 156.36953a5.028 5.028 0 0 0 -2.27836 3.95353c.0041 1.44526 1.02895 2.03667 2.29327 1.30672a5.03973 5.03973 0 0 0 2.28462-3.94978c-.00412-1.45263-1.03555-2.04024-2.29953-1.31048" fill="#2bbdf7"/></g><g clip-path="url(#F)"><path d="m140.42793 151.19284a5.02785 5.02785 0 0 0 -2.278 3.95331c.00412 1.45263 1.02895 2.0367 2.29293 1.30694a5.01475 5.01475 0 0 0 2.27838-3.94619c-.00412-1.4526-1.029-2.044-2.2933-1.31406" fill="#2bbdf7"/></g><g clip-path="url(#G)"><path d="m148.609 146.6379a5.01469 5.01469 0 0 0 -2.27838 3.94618c.00411 1.45263 1.029 2.03668 2.29327 1.30672a5.0147 5.0147 0 0 0 2.27838-3.94616c-.00412-1.45263-1.029-2.0367-2.29327-1.30674" fill="#2bbdf7"/></g><g fill-rule="evenodd"><path d="m267.90143 363.12463-6.38843-2.39563-6.83412-.55713v10.62223 1.2859l10.25119 5.81271 8.17122-15.35785-5.1813 6.5136z" fill="#4b39ff"/><path d="m267.307 360.172-2.377 5.905v11.816l10.251-5.906v-11.815z" fill="#7e5fff"/><path d="m264.93 354.266-10.251 5.906 10.251 5.905 10.251-5.905z" fill="#c998ff"/><path d="m335.66666 356.87173-6.38841-2.39566-6.83412-.55713v10.62226 1.28586l10.25118 5.81271 8.17123-15.35785-5.18131 6.51361z" fill="#4b39ff"/><path d="m335.072 353.919-2.377 5.906v11.815l10.251-5.906v-11.815z" fill="#7e5fff"/><path d="m332.695 348.013-10.251 5.906 10.251 5.906 10.251-5.906z" fill="#c998ff"/><path d="m195.70442 357.95075-6.38842-2.39565-6.83412-.55713v10.62225 1.28586l10.25118 5.81272 8.17123-15.35786-5.18131 6.51361z" fill="#4b39ff"/><path d="m195.11 354.998-2.377 5.906v11.815l10.251-5.906v-11.815z" fill="#7e5fff"/><path d="m192.733 349.092-10.251 5.906 10.251 5.906 10.251-5.906z" fill="#c998ff"/><path d="m81.19471 276.94018-6.38842-2.39565-6.83412-.55713v10.62225 1.28586l10.25118 5.81272 8.17123-15.35786-5.1813 6.51361z" fill="#4b39ff"/><path d="m80.6 273.987-2.377 5.906v11.815l10.252-5.905v-11.816z" fill="#7e5fff"/><path d="m78.223 268.082-10.251 5.905 10.251 5.906 10.252-5.906z" fill="#c998ff"/><path d="m78.45337 219.23957-6.38837-2.39565-6.83412-.55713v10.62221 1.28586l10.25112 5.81276 8.17123-15.35786-5.1813 6.51361z" fill="#4b39ff"/><path d="m77.859 216.287-2.377 5.905v11.816l10.251-5.906v-11.815z" fill="#7e5fff"/><path d="m75.482 210.381-10.251 5.906 10.251 5.905 10.251-5.905z" fill="#c998ff"/><path d="m191.94307 129.13915-6.38842-2.39565-6.83412-.55713v10.62225 1.28586l10.25118 5.81272 8.17123-15.35786-5.18131 6.51361z" fill="#4b39ff"/><path d="m191.349 126.186-2.377 5.906v11.815l10.251-5.905v-11.816z" fill="#7e5fff"/><path d="m188.972 120.281-10.251 5.905 10.251 5.906 10.251-5.906z" fill="#c998ff"/><path d="m339.59767 131.3838-6.38842-2.39566-6.83412-.55712v10.62225 1.28586l10.25118 5.81272 8.17123-15.35786-5.1813 6.51361z" fill="#4b39ff"/><path d="m339.003 128.431-2.377 5.906v11.815l10.251-5.906v-11.815z" fill="#7e5fff"/><path d="m336.626 122.525-10.251 5.906 10.251 5.906 10.251-5.906z" fill="#c998ff"/><path d="m438.80529 276.94018 6.38842-2.39565 6.83412-.55713v10.62225 1.28586l-10.25118 5.81272-8.17123-15.35786 5.1813 6.51361z" fill="#4b39ff"/><path d="m439.4 273.987 2.377 5.906v11.815l-10.252-5.905v-11.816z" fill="#7e5fff"/><path d="m441.777 268.082 10.251 5.905-10.251 5.906-10.252-5.906z" fill="#c998ff"/><path d="m441.54663 219.23957 6.38842-2.39565 6.83412-.55713v10.62221 1.28586l-10.25117 5.81276-8.17123-15.35786 5.1813 6.51361z" fill="#4b39ff"/><path d="m442.141 216.287 2.377 5.905v11.816l-10.251-5.906v-11.815z" fill="#7e5fff"/><path d="m444.518 210.381 10.251 5.906-10.251 5.905-10.251-5.905z" fill="#c998ff"/><path d="m259.34833 118.80466 3.19367-1.19766 3.41646-.27852v5.31021.64281l-5.12469 2.90586-4.08491-7.67759 2.5902 3.25623z" fill="#4b39ff"/><path d="m259.645 117.329 1.189 2.952v5.906l-5.125-2.952v-5.906z" fill="#7e5fff"/><path d="m260.834 114.376 5.124 2.953-5.124 2.952-5.125-2.952z" fill="#c998ff"/><path d="m259.34833 142.10057 3.19367-1.19757 3.41646-.27852v5.31021.64281l-5.12469 2.90585-4.08491-7.67758 2.5902 3.25623z" fill="#4b39ff"/><path d="m259.645 140.624 1.189 2.953v5.906l-5.125-2.952v-5.907z" fill="#7e5fff"/><path d="m260.834 137.672 5.124 2.952-5.124 2.953-5.125-2.953z" fill="#c998ff"/><path d="m259.34833 167.48508 3.19365-1.19762 3.41646-.27851v5.3102.64282l-5.12469 2.90585-4.08491-7.67759 2.5902 3.25624z" fill="#4b39ff"/><path d="m259.645 166.009 1.189 2.952v5.907l-5.125-2.952v-5.907z" fill="#7e5fff"/><path d="m260.834 163.057 5.124 2.952-5.124 2.952-5.125-2.952z" fill="#c998ff"/><path d="m259.34833 192.8696 3.19367-1.1976 3.41646-.27852v5.3102.64282l-5.12469 2.90585-4.08491-7.67759 2.5902 3.25624z" fill="#4b39ff"/><path d="m259.645 191.393 1.189 2.953v5.906l-5.125-2.952v-5.907z" fill="#7e5fff"/><path d="m260.834 188.441 5.124 2.952-5.124 2.953-5.125-2.953z" fill="#c998ff"/></g></svg>